<svg width="67" height="137" viewBox="0 0 67 137" fill="none" xmlns="http://www.w3.org/2000/svg">
    <path d="M25.7687 31.5175C25.7881 30.6958 26.5439 29.6223 29.5902 29.4285C32.6366 29.2347 33.7683 29.3742 35.0163 31.7539C36.3728 34.3158 37.9231 37.18 36.9115 39.8039C35.9 42.4278 32.7102 43.9742 30.4274 45.3617C28.1446 46.7493 24.7455 51.4118 24.7455 51.4118C24.7455 51.4118 18.4086 33.8197 25.7687 31.5175Z" fill="#263238"/>
    <path d="M27.1597 66.6203C27.1597 66.6203 31.7757 90.3168 33.4152 99.9519C35.1166 109.971 36.5506 131.528 36.5506 131.528H39.1164C39.1164 131.528 42.3837 112.924 39.1164 99.107C39.3373 88.0766 37.1785 65.1359 37.1785 65.1359L27.1597 66.6203Z" fill="#FF8B7B"/>
    <path d="M30.5239 66.1204C30.5239 66.1204 40.6474 90.902 44.1744 100.014C49.1198 106.642 61.5494 120.699 62.2316 120.982L63.1307 118.955C63.1307 118.955 55.5342 104.099 49.4105 96.7583C47.7827 85.848 40.0273 64.7135 40.0273 64.7135L30.5239 66.1204Z" fill="#FF8B7B"/>
    <path d="M25.7566 51.2064C25.028 52.0591 24.28 52.873 23.5319 53.7024C22.7839 54.5318 22.0126 55.3302 21.2414 56.1364C20.4701 56.9426 19.6911 57.7448 18.8849 58.5239C18.0787 59.3029 17.2687 60.0742 16.4199 60.8493L16.5478 60.7137C16.366 60.923 16.1544 61.1045 15.9199 61.2524C15.7281 61.3682 15.5256 61.4655 15.3153 61.5431C14.9776 61.6649 14.6261 61.7443 14.2689 61.7795C13.6799 61.8375 13.0866 61.8375 12.4976 61.7795C11.4365 61.6779 10.3845 61.4965 9.35053 61.2369C8.34283 60.9889 7.35839 60.6982 6.38169 60.3842C5.405 60.0703 4.44381 59.7215 3.502 59.3184C3.30313 59.2346 3.14567 59.0752 3.06427 58.8754C2.98287 58.6755 2.98418 58.4515 3.06791 58.2526C3.13995 58.078 3.27098 57.9343 3.43814 57.8465C3.6053 57.7586 3.79798 57.7323 3.98259 57.772C4.93991 57.9735 5.92048 58.1789 6.88942 58.3533C7.85836 58.5277 8.8273 58.6983 9.79237 58.8184C10.7247 58.9514 11.6645 59.0252 12.6062 59.0393C13.0205 59.0476 13.4346 59.0152 13.8425 58.9425C13.9832 58.9166 14.1209 58.8763 14.2534 58.8223C14.2783 58.8134 14.3009 58.7988 14.3193 58.7797C14.3193 58.7797 14.2921 58.7797 14.2572 58.8262L14.3851 58.6905C15.1603 57.9154 15.8967 57.1402 16.6408 56.3457L18.8655 53.9233L23.2839 49.036C23.5702 48.7096 23.9744 48.5104 24.4076 48.482C24.8408 48.4537 25.2675 48.5986 25.5939 48.8848C25.9202 49.1711 26.1195 49.5753 26.1478 50.0085C26.1762 50.4417 26.0313 50.8684 25.745 51.1948L25.7566 51.2064Z" fill="#FF8B7B"/>
    <path d="M4.63409 57.9928L3.03339 55.1907L1.90942 58.237C1.90942 58.237 3.26981 59.7873 4.56432 59.4811L4.63409 57.9928Z" fill="#FF8B7B"/>
    <path d="M1.00227 55.2721L0.614694 56.5782C0.570515 56.7244 0.570494 56.8804 0.614623 57.0265C0.658752 57.1727 0.745066 57.3026 0.862742 57.3999L1.91308 58.2526L3.02155 55.1907L2.0371 54.8031C1.93876 54.7619 1.83297 54.7414 1.72634 54.7429C1.61972 54.7445 1.51455 54.768 1.41742 54.812C1.3203 54.856 1.2333 54.9196 1.16186 54.9988C1.09043 55.0779 1.0361 55.171 1.00227 55.2721Z" fill="#FF8B7B"/>
    <path d="M25.7876 47.2958C23.5087 46.9082 22.501 48.4973 21.4119 49.6949C21.6715 51.811 25.4039 56.1519 25.4039 56.1519C25.4039 56.1519 29.9308 47.9702 25.7876 47.2958Z" fill="#F89134"/>
    <path d="M22.7569 49.8925C23.0476 52.1986 24.1483 58.6711 27.2334 68.3605L40.6862 66.3761C39.756 61.5004 38.4731 56.8921 39.0661 47.1833C39.0826 46.9156 39.0439 46.6472 38.9525 46.395C38.8611 46.1428 38.7189 45.9119 38.5347 45.7169C38.3505 45.5218 38.1282 45.3666 37.8816 45.2608C37.6351 45.1551 37.3694 45.101 37.1011 45.1021C36.1903 45.1021 35.0663 45.1408 33.8959 45.2571C31.9297 45.4072 29.9766 45.696 28.0512 46.1214C26.811 46.4237 25.4971 46.8268 24.4971 47.1523C23.9348 47.3372 23.454 47.7114 23.1367 48.211C22.8194 48.7107 22.6851 49.305 22.7569 49.8925Z" fill="#F89134"/>
    <path d="M28.0513 46.1137L33.896 45.2494C33.896 45.2494 33.6285 47.4935 29.9466 50.4429C27.1482 47.8461 28.0513 46.1137 28.0513 46.1137Z" fill="white"/>
    <path d="M32.3456 38.7536C32.2526 40.6915 32.396 44.1797 33.8959 45.2494C32.9517 46.7793 31.6596 48.0648 30.1248 49.0011C29.5453 48.7596 29.0445 48.3616 28.6783 47.8517C28.3121 47.3417 28.095 46.74 28.0513 46.1137C30.0744 45.3036 29.7915 43.7572 29.214 42.3503L32.3456 38.7536Z" fill="#FF8B7B"/>
    <path opacity="0.2" d="M31.0667 40.2225L29.2102 42.3464C29.3514 42.6729 29.4629 43.0115 29.5435 43.358C30.3187 43.1254 31.2992 42.0828 31.2605 41.2302C31.2581 40.8852 31.1924 40.5437 31.0667 40.2225Z" fill="black"/>
    <path d="M33.8186 35.0135C33.5318 38.18 33.4775 39.5248 31.8303 41.1062C29.3498 43.4898 25.5245 42.4472 24.854 39.2574C24.2532 36.3894 24.8191 31.6919 27.9546 30.5176C28.6466 30.2527 29.395 30.1697 30.1283 30.2762C30.8615 30.3828 31.5553 30.6755 32.1433 31.1263C32.7314 31.5772 33.1941 32.1711 33.4874 32.8516C33.7807 33.5321 33.8947 34.2764 33.8186 35.0135Z" fill="#FF8B7B"/>
    <path d="M31.3881 32.5485C31.1091 34.4437 32.2292 36.7653 33.1981 36.7885C34.1671 36.8118 34.8957 33.1531 34.8957 33.1531L31.3881 32.5485Z" fill="#263238"/>
    <path d="M26.0049 31.5796C28.0707 33.0446 34.2099 35.2422 34.3378 33.347C34.4657 31.4517 31.9038 29.9208 30.0085 29.9208C28.1133 29.9208 26.5862 30.6765 26.0049 31.5796Z" fill="#263238"/>
    <path opacity="0.2" d="M32.9152 97.0916L39.1165 94.6537C39.0854 93.1771 39.0351 91.6112 38.9614 90.0028L32.1013 92.4911C32.3842 94.1344 32.6672 95.6924 32.9152 97.0916Z" fill="black"/>
    <path opacity="0.2" d="M47.217 86.9759L40.0469 89.5882C40.6127 90.9912 41.1592 92.3555 41.6708 93.6422L48.2596 91.0416C47.9418 89.7277 47.6046 88.3634 47.217 86.9759Z" fill="black"/>
    <path d="M29.1755 35.8468C29.1755 36.1064 29.0282 36.3119 28.8577 36.3041C28.6871 36.2964 28.5592 36.0871 28.567 35.8313C28.5747 35.5755 28.7143 35.3662 28.8848 35.37C29.0553 35.3739 29.1832 35.5871 29.1755 35.8468Z" fill="#263238"/>
    <path d="M26.2556 35.7638C26.263 35.5049 26.1319 35.2912 25.9629 35.2864C25.7938 35.2816 25.6508 35.4875 25.6435 35.7464C25.6361 36.0053 25.7672 36.2191 25.9362 36.2239C26.1052 36.2287 26.2482 36.0227 26.2556 35.7638Z" fill="#263238"/>
    <path d="M26.0396 35.3042L25.4233 35.1065C25.4233 35.1065 25.7295 35.6026 26.0396 35.3042Z" fill="#263238"/>
    <path d="M27.0163 36.2305C26.7696 36.8126 26.4435 37.3578 26.0474 37.8505C26.1766 37.9489 26.3257 38.018 26.4844 38.0528C26.643 38.0876 26.8074 38.0873 26.9659 38.0521L27.0163 36.2305Z" fill="#FF5652"/>
    <path d="M27.8808 39.0133C27.7371 39.0345 27.5919 39.0436 27.4467 39.0404C27.4271 39.0386 27.4089 39.0297 27.3954 39.0154C27.3818 39.0012 27.3739 38.9825 27.373 38.9629C27.373 38.9529 27.3751 38.943 27.379 38.9338C27.3829 38.9246 27.3887 38.9163 27.396 38.9094C27.4032 38.9025 27.4118 38.8972 27.4212 38.8937C27.4306 38.8902 27.4406 38.8887 27.4506 38.8893C27.7715 38.9054 28.0917 38.8457 28.3853 38.7151C28.6788 38.5845 28.9375 38.3866 29.1404 38.1374C29.146 38.1292 29.1531 38.1223 29.1614 38.1169C29.1697 38.1115 29.179 38.1078 29.1887 38.106C29.1984 38.1042 29.2084 38.1043 29.2181 38.1064C29.2277 38.1084 29.2369 38.1124 29.245 38.118C29.2532 38.1236 29.2601 38.1307 29.2655 38.139C29.2709 38.1473 29.2746 38.1566 29.2764 38.1663C29.2782 38.176 29.2781 38.186 29.276 38.1956C29.274 38.2053 29.27 38.2145 29.2644 38.2226C28.9244 38.657 28.4277 38.9409 27.8808 39.0133Z" fill="#263238"/>
    <path d="M34.5004 36.6917C34.4266 36.9873 34.2946 37.2654 34.1123 37.5096C33.93 37.7537 33.701 37.9592 33.4385 38.1141C32.737 38.5249 32.1789 37.9474 32.2021 37.1762C32.2215 36.4824 32.613 35.4321 33.4036 35.3352C33.5761 35.3168 33.7504 35.342 33.9107 35.4083C34.071 35.4747 34.2121 35.5801 34.3212 35.715C34.4302 35.8498 34.5038 36.0099 34.5351 36.1805C34.5664 36.3511 34.5545 36.5269 34.5004 36.6917Z" fill="#FF8B7B"/>
    <path d="M30.2605 34.5136C30.24 34.5161 30.2193 34.5139 30.1998 34.5072C30.1803 34.5004 30.1626 34.4894 30.1481 34.4748C30.0125 34.3403 29.8469 34.24 29.665 34.182C29.4831 34.1241 29.29 34.1102 29.1016 34.1415C29.0647 34.1444 29.0279 34.1339 28.998 34.112C28.9681 34.0902 28.9471 34.0583 28.9386 34.0222C28.9302 33.9861 28.935 33.9482 28.9521 33.9154C28.9692 33.8825 28.9975 33.8569 29.0318 33.8431C29.2689 33.8023 29.5123 33.8183 29.742 33.8897C29.9717 33.9611 30.1813 34.0859 30.3535 34.2539C30.3679 34.2676 30.3794 34.2842 30.3872 34.3025C30.3951 34.3208 30.3991 34.3405 30.3991 34.3605C30.3991 34.3804 30.3951 34.4001 30.3872 34.4184C30.3794 34.4368 30.3679 34.4533 30.3535 34.4671C30.3418 34.4805 30.3276 34.4916 30.3116 34.4996C30.2956 34.5076 30.2783 34.5123 30.2605 34.5136Z" fill="#263238"/>
    <path d="M25.5127 34.2693C25.4937 34.266 25.4757 34.2587 25.4597 34.2481C25.4437 34.2374 25.43 34.2235 25.4196 34.2073C25.408 34.1912 25.3998 34.1729 25.3954 34.1535C25.3911 34.1341 25.3907 34.114 25.3943 34.0944C25.3979 34.0748 25.4055 34.0562 25.4165 34.0397C25.4275 34.0231 25.4418 34.0089 25.4584 33.998C25.653 33.8561 25.8789 33.7631 26.117 33.7266C26.3551 33.6902 26.5984 33.7115 26.8265 33.7888C26.8635 33.8042 26.8929 33.8337 26.9082 33.8707C26.9234 33.9078 26.9234 33.9494 26.9079 33.9864C26.9007 34.0051 26.8898 34.0221 26.8759 34.0365C26.862 34.051 26.8453 34.0625 26.8269 34.0704C26.8085 34.0783 26.7888 34.0825 26.7687 34.0828C26.7487 34.083 26.7288 34.0792 26.7103 34.0717C26.5292 34.012 26.3365 33.9967 26.1483 34.0271C25.9602 34.0574 25.782 34.1325 25.6289 34.2461C25.5948 34.2689 25.553 34.2773 25.5127 34.2693Z" fill="#263238"/>
    <path d="M28.958 35.3701L28.3418 35.1763C28.3418 35.1763 28.648 35.684 28.958 35.3701Z" fill="#263238"/>
    <path d="M27.2334 68.3605L31.7332 94.9715L48.5811 89.9757C47.2168 75.9105 43.7286 68.9458 40.6862 66.3762L27.2334 68.3605Z" fill="#263238"/>
    <path opacity="0.2" d="M34.0586 83.3132L37.4266 77.7786L36.8491 73.8835L34.0586 83.3132Z" fill="black"/>
    <path d="M38.8959 46.4315C39.1827 46.6873 39.5354 46.9818 39.8609 47.2531C40.1865 47.5244 40.5392 47.8035 40.888 48.067C41.5818 48.5903 42.2794 49.1057 43.0042 49.5708C44.3826 50.5039 45.8909 51.2287 47.4807 51.7219C47.5737 51.7529 47.6706 51.7684 47.7636 51.7916L47.9031 51.8265C47.9458 51.8265 47.9031 51.8265 47.9031 51.8265H47.8489C47.6939 51.8265 47.6357 51.8963 47.6784 51.8808C47.9008 51.7306 48.0917 51.5384 48.2404 51.3149C48.713 50.6365 49.1204 49.915 49.4573 49.16C49.8449 48.3849 50.186 47.5516 50.5077 46.7144C50.8294 45.8772 51.1588 45.0284 51.4611 44.1913C51.5279 44 51.6636 43.8405 51.8417 43.7439C52.0198 43.6474 52.2275 43.6207 52.4242 43.6692C52.6209 43.7176 52.7925 43.8377 52.9054 44.0059C53.0183 44.1742 53.0644 44.3784 53.0347 44.5789C52.7704 46.4517 52.3451 48.2982 51.7634 50.0979C51.4558 51.0605 51.0452 51.987 50.5387 52.8614C50.2155 53.4266 49.7803 53.9199 49.2597 54.3109C48.833 54.6124 48.3248 54.7772 47.8024 54.7837C47.7263 54.7895 47.6498 54.7895 47.5737 54.7837L47.3916 54.7605L47.1939 54.7256C47.066 54.7024 46.9303 54.6868 46.8063 54.6558C45.8066 54.4445 44.8322 54.1275 43.8995 53.7102C42.9987 53.315 42.1271 52.8565 41.2911 52.3381C40.4636 51.8377 39.6628 51.2944 38.892 50.7103C38.507 50.4209 38.1311 50.1225 37.7641 49.815C37.3766 49.5011 37.0433 49.2026 36.6557 48.8344C36.3597 48.5348 36.1904 48.1327 36.1829 47.7116C36.1754 47.2905 36.3302 46.8826 36.6153 46.5726C36.9004 46.2626 37.2939 46.0742 37.7142 46.0464C38.1345 46.0187 38.5493 46.1538 38.8726 46.4237L38.8959 46.4315Z" fill="#FF8B7B"/>
    <path d="M36.9538 45.0943C39.2793 44.9586 40.1629 46.1679 41.1202 47.4701C40.6474 49.5475 38.1282 53.1016 38.1282 53.1016C38.1282 53.1016 32.7641 45.3423 36.9538 45.0943Z" fill="#F89134"/>
    <path d="M51.3406 44.3812L51.9219 40.9667L54.0265 43.4549C54.0265 43.4549 53.2901 45.3928 51.9684 45.544L51.3406 44.3812Z" fill="#FF8B7B"/>
    <path d="M53.8445 40.0404L55.108 41.1488C55.2193 41.2469 55.2906 41.3824 55.3085 41.5296C55.3263 41.6768 55.2895 41.8254 55.2049 41.9472L53.8058 43.9278L51.926 40.9667L53.0888 40.0287C53.1967 39.9431 53.331 39.8975 53.4687 39.8997C53.6065 39.9018 53.7393 39.9515 53.8445 40.0404Z" fill="#FF8B7B"/>
    <path d="M31.6829 136.376C32.076 136.09 32.5133 135.87 32.9774 135.725C32.9774 135.725 35.2719 134.427 36.4656 130.532L39.1205 129.869C39.1865 129.852 39.2552 129.85 39.322 129.862C39.3889 129.874 39.4525 129.901 39.5085 129.939C39.5646 129.977 39.6118 130.027 39.6472 130.085C39.6825 130.144 39.7051 130.208 39.7135 130.276C39.7368 130.485 39.7523 130.725 39.7794 130.919C39.8085 131.341 39.8085 131.765 39.7794 132.187C39.7561 133.5 39.6089 136.45 39.6089 136.45H39.3027C39.3007 135.552 39.2463 134.655 39.1399 133.764C38.9849 132.896 38.3647 133.923 38.0314 134.904C37.6981 135.884 36.3067 136.934 34.2991 136.981C31.9542 137.051 31.0008 136.946 31.6829 136.376Z" fill="#263238"/>
    <path d="M61.2784 127.226C61.3539 126.745 61.5071 126.281 61.7319 125.85C61.7319 125.85 62.4334 123.307 60.5188 119.711L61.9218 117.366C61.9561 117.307 62.0025 117.256 62.058 117.217C62.1136 117.177 62.1769 117.15 62.2437 117.138C62.3105 117.125 62.3793 117.126 62.4455 117.142C62.5116 117.158 62.5736 117.188 62.6272 117.23C62.7939 117.362 62.976 117.521 63.1311 117.618C63.4498 117.896 63.7502 118.195 64.0302 118.513C64.9449 119.459 66.9371 121.652 66.9371 121.652L66.72 121.873C66.0834 121.239 65.4091 120.643 64.7007 120.09C63.9798 119.586 64.2744 120.745 64.7279 121.679C65.1813 122.613 64.9449 124.334 63.5651 125.788C61.9451 127.516 61.2009 128.117 61.2784 127.226Z" fill="#263238"/>
    <path opacity="0.9" d="M51.0615 15.7742L10.1955 11.8558C9.18951 11.7639 8.18799 12.0733 7.40906 12.7164C6.63013 13.3596 6.13689 14.2845 6.03679 15.2897L0.180512 76.4531C0.0854612 77.4592 0.393134 78.4618 1.03609 79.2414C1.67905 80.0209 2.60485 80.5137 3.61057 80.6118L44.4727 84.5302C45.4789 84.6232 46.481 84.3142 47.2602 83.6708C48.0394 83.0274 48.5323 82.1019 48.6314 81.0963L54.4916 19.9523C54.5408 19.4527 54.4912 18.9483 54.3454 18.4679C54.1997 17.9875 53.9607 17.5406 53.6422 17.1526C53.3236 16.7646 52.9318 16.4432 52.489 16.2067C52.0462 15.9701 51.5611 15.8232 51.0615 15.7742ZM42.3139 39.1915C42.0311 42.1119 40.8405 44.8703 38.9095 47.0793C36.9785 49.2883 34.404 50.837 31.5477 51.5077C28.6914 52.1785 25.6967 51.9377 22.9842 50.8192C20.2718 49.7006 17.9778 47.7605 16.4246 45.2713C14.8714 42.7822 14.1369 39.869 14.3242 36.9409C14.5116 34.0129 15.6115 31.2171 17.4694 28.9462C19.3272 26.6753 21.8498 25.0435 24.6827 24.2798C27.5156 23.5161 30.5165 23.659 33.264 24.6884C34.3623 25.0993 35.4041 25.6475 36.3646 26.3201C38.4111 27.7431 40.0414 29.6857 41.0877 31.9481C42.1341 34.2104 42.5587 36.7106 42.3178 39.1915H42.3139Z" fill="white"/>
    <path d="M30.4076 0.802089L34.8337 1.65088C35.3771 1.76552 35.8593 2.07627 36.1881 2.52379C36.517 2.97132 36.6695 3.52428 36.6166 4.07711L35.76 11.8751C35.7489 11.9773 35.7294 12.0784 35.7019 12.1775C35.5832 12.6401 35.2915 13.0395 34.8869 13.2934C34.4824 13.5473 33.9958 13.6361 33.5276 13.5417L29.1015 12.7084C28.6059 12.603 28.1599 12.3347 27.8346 11.9462C27.5094 11.5578 27.3236 11.0715 27.307 10.5651C27.2974 10.462 27.2974 10.3582 27.307 10.2551L28.1635 2.45704C28.1885 2.19514 28.2685 1.94145 28.3981 1.71251C28.5278 1.48358 28.7042 1.28455 28.916 1.12839C29.1277 0.972239 29.37 0.86247 29.627 0.806246C29.884 0.750022 30.15 0.748605 30.4076 0.802089ZM32.2563 4.52282C32.0514 4.4817 31.8402 4.4842 31.6363 4.53015C31.4324 4.5761 31.2405 4.66448 31.073 4.78952C30.9056 4.91456 30.7664 5.07347 30.6644 5.2559C30.5624 5.43833 30.5 5.64019 30.4812 5.84833C30.4356 6.2897 30.5554 6.7323 30.8175 7.09035C31.0796 7.44839 31.4652 7.69637 31.8998 7.78622C32.1047 7.82797 32.3162 7.82593 32.5203 7.78024C32.7245 7.73454 32.9166 7.64622 33.0842 7.52107C33.2518 7.39592 33.3911 7.23676 33.4929 7.05402C33.5947 6.87128 33.6567 6.66909 33.6749 6.46071C33.7197 6.0195 33.5995 5.57733 33.3376 5.21949C33.0756 4.86164 32.6905 4.61346 32.2563 4.52282Z" fill="#263238"/>
    <path d="M44.0463 17.3206C43.9563 17.3206 43.8681 17.2951 43.792 17.2471C43.7159 17.1991 43.6549 17.1305 43.6161 17.0493L41.9069 13.5185C41.7915 13.278 41.6159 13.0715 41.3973 12.9187C41.1787 12.7659 40.9244 12.6722 40.6589 12.6464L21.001 10.7628C20.7357 10.7372 20.4682 10.7805 20.2245 10.8885C19.9808 10.9964 19.769 11.1654 19.6096 11.3791L17.2609 14.5262C17.2235 14.5771 17.1764 14.6201 17.1224 14.6528C17.0684 14.6855 17.0084 14.7073 16.946 14.7168C16.8835 14.7263 16.8198 14.7235 16.7585 14.7084C16.6971 14.6933 16.6394 14.6663 16.5885 14.6289C16.5376 14.5915 16.4945 14.5444 16.4618 14.4904C16.4291 14.4363 16.4074 14.3764 16.3978 14.3139C16.3883 14.2515 16.3912 14.1878 16.4063 14.1264C16.4213 14.0651 16.4484 14.0073 16.4858 13.9564L18.8345 10.8093C19.0931 10.4654 19.4354 10.1933 19.8289 10.0189C20.2224 9.84459 20.6539 9.77378 21.0824 9.81324L40.7364 11.6969C41.1649 11.7402 41.5752 11.8921 41.9286 12.1383C42.2819 12.3845 42.5666 12.7168 42.7557 13.1038L44.461 16.6346C44.4965 16.7071 44.5129 16.7875 44.5088 16.8681C44.5047 16.9487 44.4802 17.027 44.4376 17.0955C44.395 17.1641 44.3357 17.2207 44.2652 17.2601C44.1947 17.2994 44.1154 17.3203 44.0347 17.3206H44.0463Z" fill="#F89134"/>
    <path d="M3.80832 28.2155L3.49438 28.1845L3.71143 25.9094L4.02924 25.9404L3.80832 28.2155ZM4.1959 23.8126L3.88196 23.7816L4.37418 18.6268L4.69199 18.6578L4.1959 23.8126Z" fill="#F89134"/>
    <path d="M44.841 84.6853C44.7115 84.6867 44.5821 84.6802 44.4534 84.6659L3.59121 80.7514C2.54328 80.6493 1.57858 80.1359 0.908684 79.3236C0.238792 78.5113 -0.0816067 77.4665 0.0177597 76.4183L5.87404 15.2742C5.97705 14.2267 6.49079 13.2626 7.30285 12.5929C8.11491 11.9232 9.15916 11.6024 10.2071 11.7008L51.0926 15.6037C52.1408 15.7057 53.1059 16.219 53.7764 17.0312C54.4469 17.8434 54.7682 18.8882 54.6699 19.9368L48.7904 81.1041C48.6935 82.0855 48.236 82.9962 47.5065 83.6599C46.777 84.3235 45.8272 84.693 44.841 84.6969V84.6853ZM9.83119 11.9992C8.92322 12.0016 8.04852 12.3412 7.37677 12.9521C6.70502 13.5629 6.28412 14.4016 6.19573 15.3052L0.320069 76.4531C0.23246 77.4174 0.528962 78.3772 1.14512 79.124C1.76129 79.8708 2.64731 80.3442 3.61059 80.4413L44.5038 84.352C45.468 84.4416 46.4285 84.1457 47.1751 83.5291C47.9218 82.9125 48.3938 82.0252 48.4881 81.0614L54.3482 19.9174C54.4369 18.9536 54.1413 17.9937 53.5258 17.2468C52.9102 16.4999 52.0246 16.0263 51.0616 15.9292L10.18 12.0147C10.0637 12.0031 9.94746 11.9992 9.83119 11.9992ZM28.3496 52.0668C27.8923 52.0668 27.431 52.0436 26.9698 52.001C24.9563 51.8066 23.0075 51.1847 21.2536 50.1768C19.4998 49.1689 17.9813 47.7982 16.7997 46.1563C15.618 44.5145 14.8005 42.6393 14.4017 40.6562C14.0029 38.673 14.032 36.6276 14.4871 34.6566C14.9423 32.6856 15.8129 30.8345 17.0408 29.227C18.2687 27.6194 19.8257 26.2926 21.6075 25.335C23.3894 24.3775 25.3551 23.8113 27.3733 23.6744C29.3915 23.5375 31.4157 23.833 33.3106 24.5412C34.4233 24.9551 35.4783 25.51 36.4499 26.1922C38.519 27.6314 40.1676 29.5957 41.2261 31.883C42.2846 34.1703 42.715 36.6983 42.4729 39.2071C42.1368 42.722 40.5044 45.986 37.8936 48.3632C35.2828 50.7405 31.8805 52.0607 28.3496 52.0668ZM28.3147 23.9559C25.6235 23.9577 22.9907 24.741 20.7362 26.2106C18.4817 27.6802 16.7025 29.7729 15.6148 32.2345C14.527 34.696 14.1775 37.4205 14.6087 40.077C15.04 42.7334 16.2334 45.2074 18.0439 47.1985C19.8545 49.1896 22.2043 50.612 24.808 51.293C27.4116 51.9739 30.1569 51.8842 32.7105 51.0345C35.2641 50.1849 37.5159 48.6119 39.1925 46.5068C40.8691 44.4017 41.8983 41.855 42.1551 39.1761C42.3912 36.7241 41.9704 34.2534 40.9357 32.0179C39.9011 29.7824 38.2899 27.8626 36.2678 26.4558C35.3185 25.788 34.2867 25.246 33.1982 24.8435C32.0577 24.4143 30.8651 24.1393 29.6518 24.0257C29.2023 23.9792 28.7565 23.9559 28.3147 23.9559Z" fill="#F89134"/>
    <path opacity="0.8" d="M33.2641 24.6884C30.6716 23.7192 27.8506 23.5369 25.1549 24.1643C22.4591 24.7918 20.0086 26.201 18.1105 28.2154C16.2124 30.2298 14.9512 32.7597 14.485 35.488C14.0188 38.2162 14.3684 41.0214 15.4899 43.5518L2.31226 54.4349L6.064 15.2897C6.1641 14.2845 6.65733 13.3596 7.43626 12.7164C8.2152 12.0733 9.21672 11.7639 10.2227 11.8558L23.7646 13.1542L28.0977 18.4097L33.2641 24.6884Z" fill="#F89134"/>
    <path opacity="0.5" d="M54.4917 19.9328L51.8678 47.2531L42.1784 35.5134C41.8666 33.6723 41.1921 31.9116 40.194 30.3334C39.196 28.7552 37.8944 27.391 36.3647 26.3201L49.3408 15.6036L51.0616 15.7702C52.0677 15.8693 52.9935 16.363 53.6364 17.1431C54.2792 17.9233 54.5868 18.9264 54.4917 19.9328Z" fill="#F89134"/>
    <path d="M49.3409 15.6037L36.3648 26.3201C35.4043 25.6476 34.3624 25.0993 33.2642 24.6884L28.0823 18.4097L23.7375 13.1542L49.3409 15.6037Z" fill="#F89134"/>
    <path opacity="0.5" d="M38.6536 57.8384L14.4015 55.516C13.9945 55.477 13.633 55.7754 13.594 56.1823L13.4728 57.4478C13.4338 57.8548 13.7322 58.2163 14.1391 58.2553L38.3913 60.5777C38.7982 60.6166 39.1597 60.3183 39.1987 59.9113L39.3199 58.6459C39.3589 58.2389 39.0605 57.8774 38.6536 57.8384Z" fill="#F89134"/>
    <path opacity="0.5" d="M36.2834 62.585L15.8277 60.6261C15.4207 60.5871 15.0592 60.8855 15.0203 61.2924L14.8991 62.5579C14.8601 62.9649 15.1584 63.3264 15.5654 63.3654L36.0211 65.3242C36.4281 65.3632 36.7896 65.0649 36.8286 64.6579L36.9498 63.3924C36.9887 62.9854 36.6904 62.6239 36.2834 62.585Z" fill="#F89134"/>
    <path opacity="0.5" d="M12.5228 72.9326L6.44238 72.3503L6.34706 73.3457L12.4275 73.928L12.5228 72.9326Z" fill="#F89134"/>
    <path opacity="0.5" d="M18.7955 73.5352L13.8918 73.0656L13.7965 74.061L18.7002 74.5306L18.7955 73.5352Z" fill="#F89134"/>
    <path opacity="0.5" d="M20.3222 75.9409L6.22852 74.5913L6.1332 75.5867L20.2269 76.9363L20.3222 75.9409Z" fill="#F89134"/>
    <path opacity="0.5" d="M23.1411 72.541L6.53345 70.8802L6.43345 71.8801L23.0411 73.5409L23.1411 72.541Z" fill="#F89134"/>
    <path d="M34.4268 1.46877L29.9309 0.65098C29.6632 0.603562 29.3887 0.609361 29.1232 0.668047C28.8578 0.726733 28.6064 0.837158 28.3836 0.993007C28.1608 1.14886 27.9709 1.34708 27.8248 1.57634C27.6786 1.80561 27.5791 2.06143 27.5318 2.32919L26.1288 10.1389C26.1084 10.2409 26.0993 10.3449 26.1017 10.4489C26.0858 10.9447 26.2478 11.4298 26.5584 11.8165C26.8691 12.2032 27.3078 12.466 27.7954 12.5573L32.2796 13.3751C32.7679 13.4632 33.2715 13.3727 33.6985 13.1201C34.1255 12.8674 34.4473 12.4696 34.6051 11.9992C34.6421 11.9014 34.6694 11.8001 34.6865 11.6969L36.0856 3.88724C36.1832 3.34692 36.0638 2.7899 35.7532 2.3371C35.4426 1.88431 34.966 1.57228 34.4268 1.46877ZM31.5781 4.36396C31.9015 4.41928 32.2013 4.5695 32.4391 4.79554C32.677 5.02157 32.8423 5.31322 32.914 5.63342C32.9858 5.95363 32.9607 6.28793 32.842 6.59385C32.7233 6.89978 32.5164 7.16351 32.2474 7.35154C31.9785 7.53957 31.6598 7.6434 31.3317 7.64986C31.0036 7.65631 30.681 7.56509 30.4049 7.38779C30.1288 7.21048 29.9116 6.95509 29.781 6.65408C29.6503 6.35306 29.6121 6.02 29.6712 5.69723C29.7506 5.26925 29.995 4.88962 30.3517 4.64021C30.7084 4.39079 31.1489 4.29158 31.5781 4.36396Z" fill="#263238"/>
    <path opacity="0.2" d="M34.4268 1.46877L29.9309 0.65098C29.6632 0.603562 29.3887 0.609361 29.1232 0.668047C28.8578 0.726733 28.6064 0.837158 28.3836 0.993007C28.1608 1.14886 27.9709 1.34708 27.8248 1.57634C27.6786 1.80561 27.5791 2.06143 27.5318 2.32919L26.1288 10.1389C26.1084 10.2409 26.0993 10.3449 26.1017 10.4489C26.0858 10.9447 26.2478 11.4298 26.5584 11.8165C26.8691 12.2032 27.3078 12.466 27.7954 12.5573L32.2796 13.3751C32.7679 13.4632 33.2715 13.3727 33.6985 13.1201C34.1255 12.8674 34.4473 12.4696 34.6051 11.9992C34.6421 11.9014 34.6694 11.8001 34.6865 11.6969L36.0856 3.88724C36.1832 3.34692 36.0638 2.7899 35.7532 2.3371C35.4426 1.88431 34.966 1.57228 34.4268 1.46877ZM31.5781 4.36396C31.9015 4.41928 32.2013 4.5695 32.4391 4.79554C32.677 5.02157 32.8423 5.31322 32.914 5.63342C32.9858 5.95363 32.9607 6.28793 32.842 6.59385C32.7233 6.89978 32.5164 7.16351 32.2474 7.35154C31.9785 7.53957 31.6598 7.6434 31.3317 7.64986C31.0036 7.65631 30.681 7.56509 30.4049 7.38779C30.1288 7.21048 29.9116 6.95509 29.781 6.65408C29.6503 6.35306 29.6121 6.02 29.6712 5.69723C29.7506 5.26925 29.995 4.88962 30.3517 4.64021C30.7084 4.39079 31.1489 4.29158 31.5781 4.36396Z" fill="white"/>
    <path opacity="0.2" d="M42.7874 78.2854C43.9579 77.3194 44.1238 75.5874 43.1578 74.4169C42.1919 73.2464 40.4599 73.0805 39.2894 74.0465C38.1188 75.0124 37.953 76.7444 38.9189 77.9149C39.8849 79.0855 41.6168 79.2513 42.7874 78.2854Z" fill="#F89134"/>
    <path opacity="0.8" d="M35.5112 77.5871C36.6818 76.6212 36.8476 74.8892 35.8817 73.7187C34.9157 72.5481 33.1838 72.3823 32.0132 73.3482C30.8427 74.3142 30.6769 76.0461 31.6428 77.2167C32.6087 78.3872 34.3407 78.5531 35.5112 77.5871Z" fill="#F89134"/>
</svg>
